<?xml version="1.0" encoding="utf-8"?>
<!-- Generator: Adobe Illustrator 24.0.2, SVG Export Plug-In . SVG Version: 6.00 Build 0)  -->
<svg version="1.1" id="Layer_1" xmlns="http://www.w3.org/2000/svg" xmlns:xlink="http://www.w3.org/1999/xlink" x="0px" y="0px"
	 viewBox="0 0 500 500" style="enable-background:new 0 0 500 500;" xml:space="preserve">
<g>
	<g>
		<polygon points="407.1,90.7 407.1,90.7 368.6,68.48 309.31,34.24 250,0 190.69,34.24 131.4,68.48 92.9,90.7 33.6,124.94 
			33.6,124.94 33.6,193.42 33.6,261.89 33.6,374.94 33.6,374.94 92.9,409.18 92.9,227.65 92.9,159.18 190.7,102.72 250,68.48 
			309.3,102.72 407.1,159.18 407.1,227.65 407.1,409.18 466.4,374.94 466.4,261.89 466.4,193.42 466.4,124.94 		"/>
		<polygon points="309.3,397.28 250,431.52 190.7,397.28 152.2,375.05 152.2,419.51 152.2,443.53 190.69,465.76 250,500 
			309.31,465.76 347.8,443.53 347.8,419.51 347.8,375.05 		"/>
		<polygon points="321,178.03 250,137.04 179,178.03 152.2,193.51 152.2,306.49 179,321.97 250,362.96 321,321.97 347.8,306.49 
			347.8,193.51 		"/>
	</g>
</g>
</svg>
